<?xml version="1.0" encoding="UTF-8" standalone="no"?>
<!DOCTYPE svg PUBLIC "-//W3C//DTD SVG 1.1//EN" "http://www.w3.org/Graphics/SVG/1.1/DTD/svg11.dtd">
<svg width="100%" height="100%" viewBox="0 0 107 34" version="1.1" xmlns="http://www.w3.org/2000/svg" xmlns:xlink="http://www.w3.org/1999/xlink" xml:space="preserve" xmlns:serif="http://www.serif.com/" style="fill-rule:evenodd;clip-rule:evenodd;stroke-linejoin:round;stroke-miterlimit:2;">
    <g transform="matrix(1,0,0,1,-139,-40.8992)">
        <g id="full-color" serif:id="full color" transform="matrix(1,0,0,0.368304,-3.41061e-13,95.6265)">
            <rect x="139" y="-148.593" width="106.545" height="91.92" style="fill:none;"/>
            <clipPath id="_clip1">
                <rect x="139" y="-148.593" width="106.545" height="91.92"/>
            </clipPath>
            <g clip-path="url(#_clip1)">
                <g transform="matrix(50,0,0,135.757,135.509,-58.9929)">
                    <path d="M0.07,-0.652L0.218,-0.652L0.218,-0.345L0.22,-0.345L0.36,-0.652L0.515,-0.652L0.364,-0.319L0.509,-0L0.346,-0L0.22,-0.271L0.218,-0.271L0.218,-0L0.07,-0L0.07,-0.652Z" style="fill:rgb(219,0,107);fill-rule:nonzero;"/>
                </g>
                <g transform="matrix(50,0,0,135.757,161.461,-58.9929)">
                    <path d="M0.526,-0L0.372,-0L0.347,-0.109L0.191,-0.109L0.165,-0L0.014,-0L0.187,-0.652L0.353,-0.652L0.526,-0ZM0.319,-0.226C0.297,-0.323 0.28,-0.415 0.269,-0.503L0.267,-0.503C0.255,-0.413 0.239,-0.32 0.218,-0.226L0.319,-0.226Z" style="fill:rgb(219,0,107);fill-rule:nonzero;"/>
                </g>
                <g transform="matrix(50,0,0,135.757,187.999,-58.9929)">
                    <path d="M0.079,-0.652L0.221,-0.652L0.221,-0.184L0.079,-0.184L0.079,-0.652ZM0.07,-0.064C0.07,-0.086 0.078,-0.105 0.094,-0.121C0.11,-0.136 0.129,-0.144 0.151,-0.144C0.173,-0.144 0.192,-0.136 0.208,-0.12C0.224,-0.105 0.232,-0.086 0.232,-0.064C0.232,-0.042 0.224,-0.022 0.208,-0.007C0.192,0.009 0.173,0.017 0.151,0.017C0.128,0.017 0.109,0.009 0.094,-0.007C0.078,-0.022 0.07,-0.042 0.07,-0.064Z" style="fill:rgb(219,0,107);fill-rule:nonzero;"/>
                </g>
                <g transform="matrix(-50,0,0,135.757,227.335,-58.9929)">
                    <path d="M0.07,-0.652L0.218,-0.652L0.218,-0.345L0.22,-0.345L0.36,-0.652L0.515,-0.652L0.364,-0.319L0.509,-0L0.346,-0L0.22,-0.271L0.218,-0.271L0.218,-0L0.07,-0L0.07,-0.652Z" style="fill:rgb(219,0,107);fill-rule:nonzero;"/>
                </g>
                <g transform="matrix(-59.9902,0,0,135.757,249.734,-58.9929)">
                    <path d="M0.07,-0.534C0.07,-0.599 0.114,-0.652 0.168,-0.652L0.369,-0.652L0.369,-0.513L0.218,-0.513L0.218,-0.393L0.349,-0.393L0.349,-0.258L0.218,-0.258L0.218,-0.139L0.37,-0.139L0.37,-0L0.07,-0L0.07,-0.534Z" style="fill:rgb(219,0,107);fill-rule:nonzero;"/>
                </g>
            </g>
        </g>
    </g>
</svg>
