<?xml version="1.0" encoding="UTF-8" standalone="no"?>
<!DOCTYPE svg PUBLIC "-//W3C//DTD SVG 1.1//EN" "http://www.w3.org/Graphics/SVG/1.1/DTD/svg11.dtd">
<svg width="100%" height="100%" viewBox="0 0 35 34" version="1.1" xmlns="http://www.w3.org/2000/svg" xmlns:xlink="http://www.w3.org/1999/xlink" xml:space="preserve" xmlns:serif="http://www.serif.com/" style="fill-rule:evenodd;clip-rule:evenodd;stroke-linejoin:round;stroke-miterlimit:2;">
    <g transform="matrix(1,0,0,1,-260,-80.3065)">
        <g id="icon-negativo" serif:id="icon negativo" transform="matrix(1,0,0,1,-2.84217e-13,79.8992)">
            <rect x="260" y="0.407" width="34.596" height="33.447" style="fill:none;"/>
            <clipPath id="_clip1">
                <rect x="260" y="0.407" width="34.596" height="33.447"/>
            </clipPath>
            <g clip-path="url(#_clip1)">
                <g transform="matrix(50,0,0,50,256.509,33.4072)">
                    <path d="M0.07,-0.652L0.218,-0.652L0.218,-0.345L0.22,-0.345L0.36,-0.652L0.515,-0.652L0.364,-0.319L0.509,-0L0.346,-0L0.22,-0.271L0.218,-0.271L0.218,-0L0.07,-0L0.07,-0.652Z" style="fill:white;fill-rule:nonzero;"/>
                </g>
                <g transform="matrix(50,0,0,50,282.999,33.4072)">
                    <path d="M0.079,-0.652L0.221,-0.652L0.221,-0.184L0.079,-0.184L0.079,-0.652ZM0.07,-0.064C0.07,-0.086 0.078,-0.105 0.094,-0.121C0.11,-0.136 0.129,-0.144 0.151,-0.144C0.173,-0.144 0.192,-0.136 0.208,-0.12C0.224,-0.105 0.232,-0.086 0.232,-0.064C0.232,-0.042 0.224,-0.022 0.208,-0.007C0.192,0.009 0.173,0.017 0.151,0.017C0.128,0.017 0.109,0.009 0.094,-0.007C0.078,-0.022 0.07,-0.042 0.07,-0.064Z" style="fill:white;fill-rule:nonzero;"/>
                </g>
            </g>
        </g>
    </g>
</svg>
